<svg xmlns="http://www.w3.org/2000/svg" viewBox="0 0 1200 418"><path d="M439.38 200.09h6.76a17.64 17.64 0 0 0 6.77-1.12 11.55 11.55 0 0 0 4.61-3.6l42.83-54.21a15.48 15.48 0 0 1 5.64-4.77 17.94 17.94 0 0 1 7.46-1.34h24.9l-52.28 64.51a29.08 29.08 0 0 1-9.55 8.37 22.27 22.27 0 0 1 6.39 3.59 28.86 28.86 0 0 1 5.42 6.07l53.88 72.67h-25.44q-5.14 0-7.67-1.45a12 12 0 0 1-4.24-4.24L461 227.25a11.56 11.56 0 0 0-4.73-4.08 19.79 19.79 0 0 0-7.72-1.18h-9.13v68.27h-28.91V135.05h28.87z" fill="#111"/><path d="M565.94 238.52a52.26 52.26 0 0 0 3 14.65 29.93 29.93 0 0 0 6.23 10.2 24.28 24.28 0 0 0 9.18 6 33.19 33.19 0 0 0 11.75 2 36.51 36.51 0 0 0 11.11-1.5 52.87 52.87 0 0 0 8.16-3.33q3.48-1.83 6.12-3.33a10.26 10.26 0 0 1 5.1-1.5 5.47 5.47 0 0 1 4.93 2.47l7.62 9.66a44.29 44.29 0 0 1-9.87 8.64 55.94 55.94 0 0 1-11.43 5.58 62.2 62.2 0 0 1-12.13 2.94 87.37 87.37 0 0 1-12 .86 58.81 58.81 0 0 1-21.36-3.81 47.72 47.72 0 0 1-17.18-11.27 53 53 0 0 1-11.48-18.46q-4.19-11-4.19-25.5a61.05 61.05 0 0 1 3.65-21.2 50.81 50.81 0 0 1 10.47-17.28 49.42 49.42 0 0 1 16.63-11.65 54.87 54.87 0 0 1 22.17-4.29 53.83 53.83 0 0 1 19.21 3.33 42 42 0 0 1 15.14 9.71 45.13 45.13 0 0 1 9.93 15.68 58.29 58.29 0 0 1 3.6 21.19c0 4-.44 6.71-1.29 8.11s-2.51 2.09-4.94 2.09zm50.55-16a32.14 32.14 0 0 0-1.44-9.72 23.18 23.18 0 0 0-4.35-8 20.18 20.18 0 0 0-7.36-5.42 25.12 25.12 0 0 0-10.35-2q-11.49 0-18.09 6.55t-8.43 18.57zM756.79 183.89v9.87q0 4.73-5.69 5.8l-9.87 1.82a33.61 33.61 0 0 1 2.25 12.45 32.28 32.28 0 0 1-12.34 26 42.5 42.5 0 0 1-13.69 7.17 55.61 55.61 0 0 1-17 2.52 59.69 59.69 0 0 1-6.23-.32c-2-.22-4-.5-5.9-.86q-5.16 3.12-5.16 7a5.13 5.13 0 0 0 3.06 4.88 25 25 0 0 0 8.11 2.2 114.45 114.45 0 0 0 11.48.81c4.3.1 8.7.34 13.21.69a107 107 0 0 1 13.2 1.88 39 39 0 0 1 11.47 4.2 22.54 22.54 0 0 1 8.11 7.89q3.06 5 3.06 12.83a30.19 30.19 0 0 1-3.6 14.17 38.17 38.17 0 0 1-10.41 12.24 54.77 54.77 0 0 1-16.74 8.64 72.16 72.16 0 0 1-22.6 3.27 86.27 86.27 0 0 1-21.68-2.41 51.55 51.55 0 0 1-15.35-6.44 27.89 27.89 0 0 1-9.13-9.29 21.82 21.82 0 0 1-3-10.95A18.62 18.62 0 0 1 657 287a32.22 32.22 0 0 1 12.82-8.32 18.54 18.54 0 0 1-7-6q-2.58-3.77-2.58-9.88a15.53 15.53 0 0 1 .91-5.1 21.86 21.86 0 0 1 2.69-5.2 25.54 25.54 0 0 1 4.45-4.89 30.9 30.9 0 0 1 6.33-4.13 34.82 34.82 0 0 1-13.15-12 32.15 32.15 0 0 1-4.77-17.61 32.29 32.29 0 0 1 12.4-26 41.72 41.72 0 0 1 13.9-7.21 59.11 59.11 0 0 1 17.45-2.46 58.39 58.39 0 0 1 13.31 1.45 45.16 45.16 0 0 1 11.37 4.24zM730.38 295.2a7.32 7.32 0 0 0-1.93-5.26 12.69 12.69 0 0 0-5.26-3.17 39.17 39.17 0 0 0-7.78-1.66q-4.45-.54-9.45-.81c-3.32-.17-6.76-.34-10.3-.48s-7-.43-10.36-.86a25 25 0 0 0-7.14 5.8 11.83 11.83 0 0 0-2.74 7.73 10.76 10.76 0 0 0 1.45 5.42 12.09 12.09 0 0 0 4.62 4.34 27.33 27.33 0 0 0 8.21 2.85 74 74 0 0 0 25.12-.11 30.68 30.68 0 0 0 8.85-3.11 13.42 13.42 0 0 0 5.1-4.72 11.49 11.49 0 0 0 1.61-5.96zm-29.94-62.69a24.94 24.94 0 0 0 8.58-1.34 17 17 0 0 0 6.07-3.7 15.39 15.39 0 0 0 3.65-5.69 20.91 20.91 0 0 0 1.23-7.3q0-8.16-4.88-12.94t-14.65-4.77q-9.78 0-14.66 4.77t-4.88 12.94a20.6 20.6 0 0 0 1.23 7.19 15.83 15.83 0 0 0 3.65 5.74 16.47 16.47 0 0 0 6.12 3.76 25.14 25.14 0 0 0 8.54 1.34zM838.91 199.45a4.25 4.25 0 0 1-4 2.36 7.39 7.39 0 0 1-3.65-1.18c-1.36-.79-3-1.66-5-2.63a45.8 45.8 0 0 0-7-2.68 33.29 33.29 0 0 0-9.66-1.24 28.23 28.23 0 0 0-8.69 1.24 20.74 20.74 0 0 0-6.6 3.38 14.9 14.9 0 0 0-4.19 5 13.35 13.35 0 0 0-1.45 6.17 10.29 10.29 0 0 0 2.42 7 21.06 21.06 0 0 0 6.38 4.83 55.74 55.74 0 0 0 9 3.6q5 1.54 10.36 3.32t10.36 3.92a37.32 37.32 0 0 1 9 5.37 24.59 24.59 0 0 1 6.39 7.89A24.13 24.13 0 0 1 845 257a35.55 35.55 0 0 1-2.68 13.91 30.43 30.43 0 0 1-7.94 11.05 38.23 38.23 0 0 1-12.88 7.35 52.9 52.9 0 0 1-17.59 2.69 55.13 55.13 0 0 1-20.61-3.7 52.33 52.33 0 0 1-15.67-9.5l4.51-7.3a6.5 6.5 0 0 1 2-2.15 5.52 5.52 0 0 1 3-.75 7.2 7.2 0 0 1 4.08 1.5c1.44 1 3.17 2.11 5.21 3.33a40.71 40.71 0 0 0 7.46 3.33 34.29 34.29 0 0 0 11 1.5 29.77 29.77 0 0 0 9.77-1.45 20.48 20.48 0 0 0 7-3.92 15.53 15.53 0 0 0 4.14-5.69 17.75 17.75 0 0 0 1.34-6.87 11.41 11.41 0 0 0-2.42-7.46 20.46 20.46 0 0 0-6.38-5 52.23 52.23 0 0 0-9.07-3.65q-5.1-1.56-10.42-3.28T788.4 237a36.35 36.35 0 0 1-9.07-5.52 25.09 25.09 0 0 1-6.39-8.21 26.58 26.58 0 0 1-2.41-11.87 29 29 0 0 1 2.57-12 29.33 29.33 0 0 1 7.52-10.09 37 37 0 0 1 12.13-6.93 48.46 48.46 0 0 1 16.42-2.57 51.83 51.83 0 0 1 19.27 3.38 45.6 45.6 0 0 1 14.76 9.28zM887.74 196a58 58 0 0 1 15.46-11.8 41.75 41.75 0 0 1 19.54-4.4 39.19 39.19 0 0 1 15.72 2.95 30.43 30.43 0 0 1 11.38 8.37 37.15 37.15 0 0 1 6.93 13 56.92 56.92 0 0 1 2.36 16.88v69.23h-19.22V221q0-12.34-5.63-19.16t-17.12-6.82a32.11 32.11 0 0 0-15.84 4.08 52.35 52.35 0 0 0-13.58 11.05v80.08h-19.21V132.15h19.21zM1034.16 179.81a55.43 55.43 0 0 1 21.47 4 45.88 45.88 0 0 1 16.31 11.27 49.5 49.5 0 0 1 10.36 17.66 76.27 76.27 0 0 1 0 46.31 49.62 49.62 0 0 1-10.36 17.61 45.23 45.23 0 0 1-16.31 11.21 56 56 0 0 1-21.47 3.92 56.68 56.68 0 0 1-21.63-3.92 45.29 45.29 0 0 1-16.37-11.21A49.62 49.62 0 0 1 985.8 259a76.47 76.47 0 0 1 0-46.31 49.5 49.5 0 0 1 10.36-17.66 45.93 45.93 0 0 1 16.37-11.27 56.11 56.11 0 0 1 21.63-3.95zm0 97q16.1 0 24-10.79t8-30.1q0-19.42-8-30.27t-24-10.85a33.72 33.72 0 0 0-14.22 2.79 26.42 26.42 0 0 0-10.09 8.06 35.56 35.56 0 0 0-6 12.93 69.1 69.1 0 0 0-2 17.34q0 19.32 8 30.1t24.31 10.82zM1198.28 275a36.33 36.33 0 0 1-8.48 7.46 52.17 52.17 0 0 1-10.57 5.2 67.19 67.19 0 0 1-11.65 3.06 71.14 71.14 0 0 1-11.91 1 55.26 55.26 0 0 1-20.77-3.72 45.6 45.6 0 0 1-16.43-11.16 51.22 51.22 0 0 1-10.78-18.19 73.91 73.91 0 0 1-3.87-24.91 63.24 63.24 0 0 1 3.49-21.25 50.12 50.12 0 0 1 10-17.12 46.06 46.06 0 0 1 16-11.38 52.42 52.42 0 0 1 21.25-4.13 49 49 0 0 1 18.09 3.27 40.73 40.73 0 0 1 14.38 9.45 43.1 43.1 0 0 1 9.5 15.24 58 58 0 0 1 3.44 20.66q0 4.51-1 6c-.64 1-1.86 1.51-3.65 1.51h-72.67a63.4 63.4 0 0 0 2.85 17.92 35.93 35.93 0 0 0 7 12.72 28.3 28.3 0 0 0 10.73 7.62 36.9 36.9 0 0 0 14 2.53 41 41 0 0 0 12.4-1.67 60.61 60.61 0 0 0 9-3.59 69 69 0 0 0 6.28-3.6 8.3 8.3 0 0 1 4.34-1.66 4.23 4.23 0 0 1 3.66 1.82zm-15.46-51a37.68 37.68 0 0 0-1.87-12.18 27.5 27.5 0 0 0-5.48-9.56 24.48 24.48 0 0 0-8.75-6.22 29.45 29.45 0 0 0-11.7-2.2q-13.74 0-21.73 8t-9.93 22.16z" fill="#111"/><path d="M334.52 251.41c4.19 39.11-8.38 77.77-36.32 108.5-32.13 36.32-80.09 57.74-129 57.74h-.9c-48.9 0-96.86-21.42-129-57.74C11.38 329.18-1.19 290.52 3 251.41c6.53-59.14 18.63-112.69 25.61-144.83 2.33-10.7 4.2-19.08 5.13-23.74 2.33-12.57-14.91-17.7-15.37-17.7-3.72-.93-6.05-4.19-5.12-7.91L23.49 6c.51-3.72 4.2-6 7.92-5.59C37 1.34 88.69 10.66 98 35.34c7.92 20.95 2.8 42.38-.93 56.34-.47 1.87-.93 3.73-1.4 5.6l.47 2.79c-14 60.06-23.28 109.43-27.48 146.68a90.9 90.9 0 0 0 23.28 72.65 102.92 102.92 0 0 0 153.64 0 90.83 90.83 0 0 0 23.28-72.65c-4.18-37.25-13.5-86.62-27.47-146.68l.47-2.79c-.47-1.87-.94-3.73-1.4-5.6-3.72-14-8.85-35.39-.93-56.34 9.31-24.68 61-34 66.59-34.93C309.85 0 313.57 2.28 314 6l10.25 51.23c.93 3.72-1.4 7-5.13 7.91-.46 0-17.69 5.13-15.36 17.7.94 4.66 2.79 13 5.12 23.74 7.02 32.14 19.12 85.69 25.64 144.83zM288 351.06c25.14-27.94 36.78-62.87 32.6-97.78-6.6-58.69-18.2-111.77-25.6-143.43-2.33-11.18-4.2-19.56-5.13-24.68C287 68.86 299.13 58.62 308.91 54L301 15.78c-19.1 4.22-44.71 13.51-49.37 25.15-6.51 16.76-1.85 34.92 1.4 48 .47 1.86.93 4.19 1.4 6.06l.47 1.39c14 60.54 23.74 110.83 27.94 148.55a106.83 106.83 0 0 1-27 83.81A119.45 119.45 0 0 1 171 367.77a7.92 7.92 0 0 1-.85.05h-2.82a7.89 7.89 0 0 1-.84-.05A119.43 119.43 0 0 1 81.7 328.7a106.79 106.79 0 0 1-27-83.81c4.19-37.72 14-88 28-148.55l.4-1.34c.46-1.87.93-4.2 1.39-6.06 3.27-13 7.92-31.2 1.4-48C81.24 29.29 55.63 20 36.53 15.78L28.61 54c9.78 4.66 21.89 14.9 19.1 31.21-.94 5.12-2.79 13.5-5.12 24.68-7.45 31.62-19.1 84.7-25.59 143.39-4.19 34.91 7.45 69.84 32.6 97.78 29.8 33.06 74 52.62 118.75 52.62h.9c44.66 0 88.9-19.56 118.75-52.62zm7-80.56a7 7 0 1 0 7-7 7 7 0 0 0-7 7zm-2.33-33.06a7 7 0 1 0 7-7 7 7 0 0 0-7.05 7zM288 200.65a7 7 0 1 0 7-7 7 7 0 0 0-7 7zM285.63 305a7 7 0 1 0 7-7 7 7 0 0 0-7 7zm-16.77 30.73a7 7 0 1 0 7-7 7 7 0 0 0-7 6.96zM240.92 359a7 7 0 1 0 7-7 7 7 0 0 0-7 7zm-158.28 0a7 7 0 1 0 7-7 7 7 0 0 0-7 7zm-27.95-23.31a7 7 0 1 0 7-7 7 7 0 0 0-7 7zM37.93 305a7 7 0 1 0 7-7 7 7 0 0 0-7 7zM35.6 200.65a7 7 0 1 0 7-7 7 7 0 0 0-7 7zm-4.66 36.79a7 7 0 1 0 7-7 7 7 0 0 0-7 7zm-2.33 33.06a7 7 0 1 0 7-7 7 7 0 0 0-7 7z" fill="#e59624"/></svg>